# xmcd
#
# Track frame offsets:
#	150
#	9131
#	14833
#	24564
#	33246
#	47991
#	56363
#	63614
#	70295
#	78293
#	88082
#	96395
#	103381
#	115377
#	123491
#	131091
#	140540
#	153673
#	160849
#	170149
#	177941
#	192824
#	201862
#	205878
#	216619
#	225638
#	235518
#	245838
#	255135
#	263055
#	271703
#	281047
#	286802
#	293441
#	303287
#	312886
#	318489
#	327321
#	336615
#
# Disc length: 4599 seconds
#
# Revision: 1
# Processed by: cddbd v1.5.2PL0 Copyright (c) Steve Scherf et al.
# Submitted via: audiograbber 1.83.01
#
DISCID=4b11f527
DTITLE=Александр Городницкий - Серебрянные струны
DYEAR=1900
DGENRE=Chanson
TTITLE0=Песня полярных летчиков
TTITLE1=Брусника
TTITLE2=Попутного ветра
TTITLE3=Листопад
TTITLE4=Памяти Юрия Визбора
TTITLE5=Вальс геофизиков
TTITLE6=А на Арбате
TTITLE7=Песенка радиста
TTITLE8=Черный хлеб
TTITLE9=Тени Тундры
TTITLE10=Не женитесь, поэты
TTITLE11=Попутная
TTITLE12=Донской монастырь
TTITLE13=Бухта Наталья
TTITLE14=Английский канал
TTITLE15=Новогодняя
TTITLE16=Соловки
TTITLE17=Звезда Полярная
TTITLE18=Вальс тридцать девятого года
TTITLE19=Самозванец
TTITLE20=Аэропорты 19 века
TTITLE21=Пристани пустые
TTITLE22=Нас не любят
TTITLE23=Предательство
TTITLE24=Ванька
TTITLE25=Режиссеры
TTITLE26=Тяжелое солнце
TTITLE27=Моряки ледокольного флота
TTITLE28=Галилей
TTITLE29=Плач Марфы-посадницы
TTITLE30=На восток
TTITLE31=В поезде
TTITLE32=Начнем все снова
TTITLE33=Моряк, покрепче вяжи узлы
TTITLE34=Волчья песня
TTITLE35=Песня искателей урана
TTITLE36=Не пойте без меня
TTITLE37=Марш серых гномов
TTITLE38=Дворец Трезини
EXTD=
EXTT0=
EXTT1=
EXTT2=
EXTT3=
EXTT4=
EXTT5=
EXTT6=
EXTT7=
EXTT8=
EXTT9=
EXTT10=
EXTT11=
EXTT12=
EXTT13=
EXTT14=
EXTT15=
EXTT16=
EXTT17=
EXTT18=
EXTT19=
EXTT20=
EXTT21=
EXTT22=
EXTT23=
EXTT24=
EXTT25=
EXTT26=
EXTT27=
EXTT28=
EXTT29=
EXTT30=
EXTT31=
EXTT32=
EXTT33=
EXTT34=
EXTT35=
EXTT36=
EXTT37=
EXTT38=
PLAYORDER=
